<?xml version="1.0" encoding="utf-8"?>
<!-- Generator: Adobe Illustrator 27.2.0, SVG Export Plug-In . SVG Version: 6.00 Build 0)  -->
<svg version="1.1" id="business_card" xmlns="http://www.w3.org/2000/svg" xmlns:xlink="http://www.w3.org/1999/xlink" x="0px"
	 y="0px" viewBox="0 0 510 323.2" style="enable-background:new 0 0 510 323.2;" xml:space="preserve">
<style type="text/css">
	.st0{fill:none;stroke:#231F20;stroke-width:2;stroke-miterlimit:10;}
	.st1{enable-background:new    ;}
	.st2{fill:#231F20;}
	.st3{fill:none;stroke:#000000;stroke-width:0.25;stroke-miterlimit:10;}
	.st4{fill:none;stroke:#000000;stroke-width:2;stroke-miterlimit:10;}
</style>
<g id="graphic_elements">
	<polyline class="st0" points="461.4,293.9 24.9,293.9 24.9,157.7 156.2,157.7 	"/>
	<polyline class="st0" points="453.6,37.8 489.5,37.8 489.5,293.9 461.4,293.9 	"/>
</g>
<g>
	<g class="st1">
		<path class="st2" d="M27.9,137.8c1.1,0,1.8,0.5,2.3,1.1l-0.7,0.4c-0.3-0.4-0.9-0.8-1.6-0.8c-1.2,0-2.1,0.9-2.1,2.2
			s0.9,2.2,2.1,2.2c0.6,0,1.2-0.3,1.5-0.6v-1h-1.9v-0.8h2.7v2.1c-0.6,0.6-1.3,1-2.3,1c-1.7,0-3-1.2-3-3
			C24.9,139,26.2,137.8,27.9,137.8z"/>
		<path class="st2" d="M38.8,143.7l-1.4-2.2h-1.1v2.2h-0.9v-5.8H38c1.1,0,1.9,0.7,1.9,1.8c0,1-0.7,1.6-1.4,1.7l1.5,2.3H38.8z
			 M37.8,138.7h-1.5v2h1.5c0.6,0,1.1-0.4,1.1-1S38.5,138.7,37.8,138.7z"/>
		<path class="st2" d="M49.2,143.7l-0.5-1.2h-2.8l-0.5,1.2h-1l2.3-5.8h1.1l2.3,5.8H49.2z M47.3,138.7l-1.2,3.1h2.3L47.3,138.7z"/>
		<path class="st2" d="M55.1,143.7v-5.8h2.4c1.2,0,1.8,0.8,1.8,1.8s-0.7,1.8-1.8,1.8H56v2.2H55.1z M57.4,138.7H56v2h1.5
			c0.6,0,1.1-0.4,1.1-1S58,138.7,57.4,138.7z"/>
		<path class="st2" d="M68.6,143.7v-2.6h-3.2v2.6h-0.9v-5.8h0.9v2.4h3.2v-2.4h0.9v5.8H68.6z"/>
		<path class="st2" d="M74.9,143.7v-5.8h0.9v5.8H74.9z"/>
		<path class="st2" d="M81.1,140.8c0-1.8,1.3-3,3-3c1.1,0,1.8,0.5,2.3,1.2l-0.7,0.4c-0.3-0.5-0.9-0.8-1.6-0.8
			c-1.2,0-2.1,0.9-2.1,2.2s0.9,2.2,2.1,2.2c0.7,0,1.3-0.4,1.6-0.8l0.7,0.4c-0.5,0.7-1.2,1.2-2.3,1.2
			C82.4,143.8,81.1,142.6,81.1,140.8z"/>
		<path class="st2" d="M97.9,143.7v-5.8h2.1c1.8,0,3,1.2,3,2.9s-1.2,2.9-3,2.9L97.9,143.7L97.9,143.7z M98.8,142.9h1.2
			c1.3,0,2.1-1,2.1-2.1c0-1.2-0.7-2.1-2.1-2.1h-1.2V142.9z"/>
		<path class="st2" d="M108.2,143.7v-5.8h3.9v0.8h-3v1.7h3v0.8h-3v1.8h3v0.8h-3.9V143.7z"/>
		<path class="st2" d="M117.6,142.2c0.4,0.4,1,0.8,1.8,0.8c0.9,0,1.3-0.5,1.3-0.9c0-0.6-0.7-0.8-1.4-1c-0.9-0.2-2-0.5-2-1.7
			c0-1,0.8-1.6,2-1.6c0.9,0,1.6,0.3,2.1,0.8l-0.5,0.6c-0.4-0.5-1-0.7-1.7-0.7c-0.6,0-1.1,0.3-1.1,0.8s0.6,0.7,1.3,0.9
			c0.9,0.3,2,0.5,2,1.8c0,0.9-0.6,1.7-2.2,1.7c-1,0-1.8-0.4-2.3-0.9L117.6,142.2z"/>
		<path class="st2" d="M126.8,143.7v-5.8h0.9v5.8H126.8z"/>
		<path class="st2" d="M135.9,137.8c1.1,0,1.8,0.5,2.3,1.1l-0.7,0.4c-0.3-0.4-0.9-0.8-1.6-0.8c-1.2,0-2.1,0.9-2.1,2.2
			s0.9,2.2,2.1,2.2c0.6,0,1.2-0.3,1.5-0.6v-1h-1.9v-0.8h2.7v2.1c-0.6,0.6-1.3,1-2.3,1c-1.7,0-3-1.2-3-3
			C132.9,139,134.2,137.8,135.9,137.8z"/>
		<path class="st2" d="M147.6,143.7l-3.2-4.4v4.4h-0.9v-5.8h0.9l3.1,4.3v-4.3h0.9v5.8H147.6z"/>
	</g>
	<line class="st3" x1="91.6" y1="135.6" x2="91.6" y2="145.6"/>
</g>
<polyline class="st4" points="458,26.2 499.6,26.1 499.5,305.6 453.6,305.6 "/>
<polyline class="st4" points="49.9,113 12.2,113 12.2,305.6 458,305.6 "/>
<line class="st4" x1="17.2" y1="102.9" x2="37.9" y2="102.9"/>
<line class="st0" x1="196.3" y1="27.7" x2="119.8" y2="27.7"/>
<line class="st0" x1="196.9" y1="37.8" x2="114.5" y2="37.8"/>
<image style="overflow:visible;" width="545" height="458" xlink:href="../../../Downloads/2__1_-removebg-preview.png"  transform="matrix(0.2205 0 0 0.2205 -1.3248 3.2855)">
</image>
</svg>
