<?xml version="1.0" encoding="utf-8"?>
<!-- Generator: Adobe Illustrator 27.2.0, SVG Export Plug-In . SVG Version: 6.00 Build 0)  -->
<svg version="1.1" id="business_card" xmlns="http://www.w3.org/2000/svg" xmlns:xlink="http://www.w3.org/1999/xlink" x="0px"
	 y="0px" viewBox="0 0 510 323.2" style="enable-background:new 0 0 510 323.2;" xml:space="preserve">
<style type="text/css">
	.st0{fill:none;stroke:#231F20;stroke-width:2;stroke-miterlimit:10;}
	.st1{enable-background:new    ;}
	.st2{fill:#231F20;}
	.st3{fill:none;stroke:#000000;stroke-width:0.1;stroke-miterlimit:10;}
</style>
<g id="graphic_elements">
	<polyline class="st0" points="170.2,294 15,294 15,171.7 	"/>
	<polyline class="st0" points="130.4,37.9 490.5,37.9 490.5,294 461.8,294 	"/>
</g>
<g>
	<g class="st1">
		<path class="st2" d="M18.3,139.8c1.1,0,1.8,0.5,2.3,1.1l-0.7,0.4c-0.3-0.4-0.9-0.8-1.6-0.8c-1.2,0-2.1,0.9-2.1,2.2
			c0,1.3,0.9,2.2,2.1,2.2c0.6,0,1.2-0.3,1.5-0.6v-1H18v-0.8h2.7v2.1c-0.6,0.6-1.3,1-2.3,1c-1.7,0-3-1.2-3-3
			C15.4,141,16.7,139.8,18.3,139.8z"/>
		<path class="st2" d="M29.3,145.6l-1.4-2.2h-1.1v2.2H26v-5.8h2.4c1.1,0,1.9,0.7,1.9,1.8c0,1-0.7,1.6-1.4,1.7l1.5,2.3H29.3z
			 M28.3,140.6h-1.5v2h1.5c0.6,0,1.1-0.4,1.1-1S29,140.6,28.3,140.6z"/>
		<path class="st2" d="M39.7,145.6l-0.5-1.2h-2.8l-0.5,1.2h-1l2.3-5.8h1.1l2.3,5.8H39.7z M37.8,140.6l-1.2,3.1H39L37.8,140.6z"/>
		<path class="st2" d="M45.6,145.6v-5.8H48c1.2,0,1.8,0.8,1.8,1.8s-0.7,1.8-1.8,1.8h-1.6v2.2H45.6z M47.9,140.6h-1.5v2h1.5
			c0.6,0,1.1-0.4,1.1-1S48.5,140.6,47.9,140.6z"/>
		<path class="st2" d="M59,145.6v-2.6h-3.2v2.6H55v-5.8h0.9v2.4H59v-2.4h0.9v5.8H59z"/>
		<path class="st2" d="M65.4,145.6v-5.8h0.9v5.8H65.4z"/>
		<path class="st2" d="M71.6,142.8c0-1.8,1.3-3,3-3c1.1,0,1.8,0.5,2.3,1.2l-0.7,0.4c-0.3-0.5-0.9-0.8-1.6-0.8
			c-1.2,0-2.1,0.9-2.1,2.2c0,1.3,0.9,2.2,2.1,2.2c0.7,0,1.3-0.4,1.6-0.8l0.7,0.4c-0.5,0.7-1.2,1.2-2.3,1.2
			C72.9,145.7,71.6,144.5,71.6,142.8z"/>
		<path class="st2" d="M88.4,145.6v-5.8h2.1c1.8,0,3,1.2,3,2.9c0,1.7-1.2,2.9-3,2.9H88.4z M89.3,144.9h1.2c1.3,0,2.1-1,2.1-2.1
			c0-1.2-0.7-2.1-2.1-2.1h-1.2V144.9z"/>
		<path class="st2" d="M98.7,145.6v-5.8h3.9v0.8h-3v1.7h3v0.8h-3v1.8h3v0.8H98.7z"/>
		<path class="st2" d="M108.1,144.2c0.4,0.4,1,0.8,1.8,0.8c0.9,0,1.3-0.5,1.3-0.9c0-0.6-0.7-0.8-1.4-1c-0.9-0.2-2-0.5-2-1.7
			c0-1,0.8-1.6,2-1.6c0.9,0,1.6,0.3,2.1,0.8l-0.5,0.6c-0.4-0.5-1-0.7-1.7-0.7c-0.6,0-1.1,0.3-1.1,0.8c0,0.5,0.6,0.7,1.3,0.9
			c0.9,0.3,2,0.5,2,1.8c0,0.9-0.6,1.7-2.2,1.7c-1,0-1.8-0.4-2.3-0.9L108.1,144.2z"/>
		<path class="st2" d="M117.3,145.6v-5.8h0.9v5.8H117.3z"/>
		<path class="st2" d="M126.4,139.8c1.1,0,1.8,0.5,2.3,1.1l-0.7,0.4c-0.3-0.4-0.9-0.8-1.6-0.8c-1.2,0-2.1,0.9-2.1,2.2
			c0,1.3,0.9,2.2,2.1,2.2c0.6,0,1.2-0.3,1.5-0.6v-1H126v-0.8h2.7v2.1c-0.6,0.6-1.3,1-2.3,1c-1.7,0-3-1.2-3-3
			C123.4,141,124.7,139.8,126.4,139.8z"/>
		<path class="st2" d="M138.1,145.6l-3.2-4.4v4.4h-0.9v-5.8h0.9l3.1,4.3v-4.3h0.9v5.8H138.1z"/>
	</g>
	<line class="st3" x1="82.1" y1="137.6" x2="82.1" y2="147.6"/>
</g>
<image style="overflow:visible;enable-background:new    ;" width="251" height="260" xlink:href="14E7198E.png"  transform="matrix(0.5167 0 0 0.5167 11 1.4099)">
</image>
</svg>
